<?xml version="1.0" encoding="UTF-8"?>
<svg xmlns="http://www.w3.org/2000/svg" xmlns:xlink="http://www.w3.org/1999/xlink" width="288pt" height="191pt" viewBox="0 0 288 191" version="1.1">
<g id="surface1">
<path style="fill-rule:evenodd;fill:rgb(100%,0%,0%);fill-opacity:1;stroke-width:2;stroke-linecap:butt;stroke-linejoin:miter;stroke:rgb(100%,0%,0%);stroke-opacity:1;stroke-miterlimit:4;" d="M 212.831424 128.60958 L 130.193052 60.645345 L 111.992934 82.44931 L 212.824191 163.371579 L 213.677773 284.629547 L 155.171195 465.234876 C 155.171195 465.234876 193.321998 466.183823 194.17558 464.49317 C 194.595138 463.64239 236.565362 297.347618 238.265293 294.795278 L 285.747635 464.384096 L 322.205741 464.384096 L 263.699162 285.46942 L 264.552745 163.371579 L 361.079919 81.751234 L 345.433316 59.783658 L 266.245442 128.60958 L 212.824191 128.60958 Z M 212.831424 128.60958 " transform="matrix(0.540003,0,0,0.358127,0,0)"/>
<path style="fill-rule:evenodd;fill:rgb(100%,0%,0%);fill-opacity:1;stroke-width:2;stroke-linecap:butt;stroke-linejoin:miter;stroke:rgb(100%,0%,0%);stroke-opacity:1;stroke-miterlimit:4;" d="M 239.111642 12.445385 C 159.402939 14.136037 160.256522 118.432942 236.565362 119.283722 C 318.813112 119.283722 321.359392 13.296165 239.111642 12.445385 Z M 239.111642 12.445385 " transform="matrix(0.540003,0,0,0.358127,0,0)"/>
</g>
</svg>
