<?xml version="1.0" encoding="UTF-8"?>
<svg enable-background="new 0 0 2247.8 1705.92" version="1.1" viewBox="0 0 2247.8 1705.92" xmlns="http://www.w3.org/2000/svg">
 <path d="m1102.1 58.112c13.765-7.55 35.281-8.559 51.605 8.693 19.194 17.692 46.12 22.057 61.695 56.247 16.204 36.27 29.183 119.38 29.132 148.24-3.259 52.926-41.269 22.198-40.889 163.2 1.147 35.763 39.72 45.453 75.234 66.457 69.094 43.023 110.38-0.393 164.41 63.724 4.515 5.382 8.187 11.408 12.793 16.724 4.304 5.111 8.94 9.927 13.268 15.02 9.508 10.984 19.24 47.584 37.62 79.202 7.08 11.643 16.285 21.763 24.629 32.485 21.439 26.733 38.88 83.64 71.99 120.14 11.896 11.975 13.486 13.345 29.523 12.757 35.674-3.426 30.524-5.722 156.04-72.905 42.432-22.252 79.649-44.991 127.36-92.458 6.744-6.316 3.777-12.778 5.298-17.772 3.383-17.376 13.944-15.446 37.879-58.817 28.365-50.417 27.933-50.481 28.572-53.941 0.525-4.44-0.307-16.318 12.907-17.615 33.851-4.147 26.067 28.291 48.854 42.226 27.075 19.141 23.062 39.685 23.593 47.222 0.551 5.083 3.928 13.021 8.645 14.599 3.831 0.712 9.525-3.578 14.677-6.014 15.332-6.665 15.886-16.604 15.725-31.558-1.067-11.826-0.203-17.844 13.66-47.505 1.313-2.837 5.824-3.374 7.555-2.866 6.047 4.093 4.883 6.548 4.991 63.013 0.205 6.622-1.481 13.196-0.789 19.818 0.716 3.365 3.215 5.912 4.846 8.85 2.553-1.379 5.448-2.342 7.573-4.401 1.306-2.27 1.951-5.003 4.07-6.749 4.175-4.641 11.98-1.556 20.204-1.108 1.872 2.992 2.872 6.58 3.221 10.084-1.366 2.035-49.05 35.367-52.424 37.211-14.75 8.284-105.2 32.823-141.44 49.492-49.551 22.675-179.08 156.21-300.03 238.16-10.885 7.303-24.43 9.133-35.357 16.339-5.826 3.59-32.781 48.451-119.95-23.768-89.04-71.902-117.63-119.44-143.91-162.97-4.762-6.423-2.992-14.882-5.755-21.98-1.938-2.835-5.256-4.256-8.29-5.587-22.064 31.451-10.923 14.458-38.903 66.752-0.482 0.963-1.469 1.493-2.263 2.149-13.63 44.158-12.905 23.541-16.754 72.688-0.598 126.13 2.237 100.29 24.406 183.12 12.323 41.57 13.13 70.165 27.428 68.161 22.183-3.815 36.73 2.72 58.944-13.407 9.638-6.357 21.035-8.994 31.841-12.655 21.547-6.927 48.238-25.651 58.245-29.053 81.329-24.236 78.112-23.599 78.112-23.599 25.631-6.923 58.709 9.649 77.913 29.788 19.07 19.133 34.18 63.628 34.905 66.12 7.426 24.932-7.364 35.859-11.186 41.136-7.183 9.957-5.627 13.704-19.499 31.775-54.649 71.129-122.54 140.79-207.05 186.42-22.034 11.53-31.049 1.615-43.237 10.066-2.777 4.329 5.225 13.016 7.688 16.05 31.93 38.538 28.943 30.705 30.149 46.897-0.072 8.207 1.112 13.411 9.217 15.49 3.918 0.565 3.353 11.193 3.636 13.22 1.766 41.584 9.656 69.067-25.676 87.895-8.664 4.622-38.771 10.586-60.912 0.56-16.116-6.641-2.866-7.171-52.562-19.301-31.178-7.367-119.38-44.788-165.65-49.107-20.359-2.745-27.713 9.613-82.007 31.118-23.081 8.88-45.723 18.988-69.371 26.308-20.065 6.014-41.22 7.784-60.942 15.044-59.833 23.436-86.635 12.043-135.61 23.798-33.409 7.708-67.643 6.026-101.83 3.203-6.389-0.725-30.307-0.021-46.187-21.293-21.566-28.204-0.854-53.262 9.301-78.281 2.866-6.791 4.136-14.19 7.724-20.679 8.5-16.529 41.832-48.913 56.186-53.483 2.148-0.776 81.179-10.222 85.95-14.485 2.209-1.866 3.799-4.334 5.978-6.231-13.724-10.928-59.777-33.681-75.541-40.618-26.531-11.824-51.515-26.778-77.889-38.927-11.887-6.081-117.42-78.775-161.17-152.38-7.254-12.323-10.078-26.766-10.228-40.931 0.336-34.819-2.888-45.636 33.051-84.379 8.199-7.865 15.323-19.009 51.124-23.244 30.144-4.617 51.885 7.138 81.339 13.997 3.48 0.596 5.876 3.498 9.139 4.599 133.94 34.186 35.706 8.169 126.98 42.033 47.611 17.149 60.266 20.686 63.423 11.667 14.381-32.387 11.052-29.003 28.283-130.28 6.16-40.263 28.926-54.446-29.324-232.19-3.01-8.862-9.337-15.929-14.599-23.485-8.984 1.983-9.698 6.246-10.397 7.706-9.723 22.299-15.749 46.47-29.655 66.746-20.324 29.601-45.489 55.398-67.396 83.771-42.7 56.492-57.575 42.645-93.843 72.158-8.864 7.256-25.959 10.539-37.367 11.758-37.471 2.917-36.663-4.096-70.147-33.003-280.37-247.46-222.06-239.96-309.03-240.91-25.576-3.329-53.604 4.801-69.491-9.054-5.527-5.155-4.916-2.509-46.145-2.643-13.776 0.061-22.873 7.676-45.025-22.72 6.442-2.607 12.805-5.412 19.21-8.103-7.53-33.624-47.271-49.544-29.993-93.987 26.122 35.725 33.834 58.17 64.073 69.648 8.225 2.767 12.356-1.771 12.203-8.609-0.935-16.866-3.754-25.479 15.544-62.177 15.09-27.353 6.713-26.579 12.365-42.274 2.868-8.566 10.985-6.511 15.448-6.333 34.181-2.697 5.248 11.023 78.552 67.071 98.06 77.111 27.194 63.722 321.24 229.6 37.821 24.632 36.263-4.389 78.178-88.413 15.797-31.083 45.954-52.978 57.866-85.282 2.101-5.689 3.347-11.655 5.569-17.308 5.912-16.357 14.689-31.48 20.944-47.692 8.781-23.588 6.427-17.524 18.771-30.673 16.47-15.761 38.448-47.726 80.996-53.7 21.186-3.244 31.848 0.476 105.08-23.828 79.876-26.256 65.25-42.698 67.474-75.596-0.139-6.809 0.439-13.672-0.801-20.408-4.774-25.317-6.336-51.122-19.614-72.664-12.016-19.962-23.908-20.825-33.087-45.188-10.096-26.57 1.438-42.181 3.492-48.059 9.82-25.767 1.906-52.77 10.788-77.293 8.683-24.112 7.813-52.477 28.301-71.508 29.636-30.981 48.181-3.675 84.59-24.978m892.49 560.33c9.301 9.674 18.35 19.596 27.735 29.198 16.401-31.026-6.011-42.482-10.011-64.807-1.457 6e-3 -2.908 6e-3 -4.323 0.018-4.382 11.895-9.054 23.689-13.401 35.591m-1785.7-16.471c-16.935 40.285 0.905 61.823 19.048 59.606 2.882-19.232 14.613-46.437-19.048-59.606z"/>
</svg>
